<svg width="20" height="20" viewBox="0 0 20 20" fill="none" xmlns="http://www.w3.org/2000/svg">
<path d="M9.42123 4.02161C9.42123 3.98072 9.42123 3.95431 9.42123 3.9279C9.42123 3.29783 9.42002 2.66776 9.4219 2.03768C9.42283 1.72171 9.66934 1.46619 9.97804 1.4544C10.3036 1.44206 10.5775 1.70455 10.5782 2.03339C10.5795 2.65676 10.5786 3.28013 10.5786 3.9035C10.5786 3.99359 10.5795 3.99466 10.654 3.95029C11.0696 3.70241 11.4846 3.4536 11.9003 3.206C12.2582 2.99285 12.6978 3.18723 12.7784 3.59369C12.8262 3.83393 12.7121 4.07443 12.4842 4.21103C12.0576 4.46654 11.6305 4.72139 11.2039 4.97677C11.0145 5.09018 10.8259 5.20494 10.6356 5.31674C10.5941 5.34114 10.5777 5.36942 10.5777 5.41822C10.5789 6.51307 10.5785 7.60779 10.5787 8.70264C10.5787 8.77517 10.5849 8.77825 10.6487 8.74138C11.5651 8.21038 12.4801 7.67696 13.3997 7.15159C13.5079 7.08979 13.5472 7.02692 13.5457 6.90358C13.5417 6.55972 13.5522 6.21573 13.5585 5.87187C13.5647 5.53029 13.5729 5.18871 13.5803 4.84714C13.5869 4.53505 13.8359 4.28436 14.143 4.28047C14.4617 4.27645 14.732 4.51749 14.7343 4.83132C14.7373 5.24207 14.7218 5.65296 14.7146 6.06384C14.7131 6.15098 14.7142 6.23812 14.7111 6.32512C14.7093 6.37888 14.7269 6.38089 14.7684 6.35663C15.036 6.20032 15.3045 6.04534 15.5728 5.89011C15.8565 5.72602 16.1397 5.56099 16.4244 5.39851C16.6511 5.26915 16.9596 5.32827 17.1371 5.53217C17.3138 5.73513 17.3213 6.04347 17.1575 6.26359C17.097 6.34496 17.0164 6.39859 16.931 6.44792C16.3963 6.75692 15.8614 7.06579 15.3267 7.37493C15.3174 7.38029 15.3091 7.38713 15.2916 7.3996C15.3807 7.44987 15.4632 7.49652 15.5459 7.54291C15.9172 7.75163 16.2886 7.95996 16.6596 8.16896C16.9423 8.32822 17.0398 8.67074 16.8865 8.96405C16.7505 9.22439 16.4006 9.34009 16.1278 9.19745C15.8 9.02599 15.4807 8.83817 15.1581 8.65693C14.8276 8.47139 14.4971 8.28572 14.1673 8.09898C14.1312 8.07847 14.1023 8.08222 14.068 8.10206C13.1847 8.6147 12.3012 9.12667 11.4176 9.63877C11.3501 9.67791 11.2835 9.71867 11.2146 9.75526C11.168 9.77993 11.1715 9.79468 11.215 9.81961C11.4355 9.94603 11.6549 10.0746 11.8748 10.2021C12.2645 10.4277 12.6546 10.6532 13.0444 10.8785C13.3803 11.0728 13.7165 11.2662 14.0516 11.4618C14.0931 11.4861 14.1245 11.4877 14.1674 11.4634C14.8053 11.1012 15.444 10.7402 16.0832 10.3804C16.3512 10.2296 16.7035 10.3331 16.8611 10.6057C17.0188 10.8787 16.9239 11.2326 16.6421 11.3969C16.3532 11.5654 16.0602 11.7266 15.769 11.8911C15.6233 11.9733 15.4782 12.0562 15.3319 12.1372C15.2897 12.1605 15.2835 12.1755 15.3301 12.2025C15.769 12.4548 16.2072 12.708 16.6452 12.9618C16.7764 13.0378 16.9092 13.1115 17.0359 13.1945C17.2259 13.3192 17.3145 13.5724 17.2578 13.8038C17.2015 14.0333 17.0079 14.2059 16.7824 14.2364C16.636 14.2563 16.5042 14.223 16.379 14.1505C15.8696 13.8554 15.3602 13.5604 14.8504 13.2661C14.8225 13.25 14.7919 13.2137 14.7628 13.23C14.7324 13.2471 14.7501 13.2917 14.7505 13.3239C14.7553 13.6991 14.7601 14.0743 14.7681 14.4496C14.7708 14.5745 14.7876 14.6997 14.7684 14.824C14.7218 15.1236 14.4589 15.3467 14.1781 15.3287C13.8562 15.3081 13.6198 15.0653 13.6133 14.7436C13.6053 14.3482 13.6015 13.9529 13.594 13.5577C13.5879 13.2317 13.5778 12.9058 13.5722 12.5797C13.5714 12.5308 13.5461 12.5085 13.5095 12.4874C13.017 12.2032 12.5249 11.9183 12.0326 11.6338C11.5712 11.3673 11.1096 11.1009 10.6479 10.8347C10.5821 10.7968 10.5791 10.7981 10.5791 10.8726C10.5789 11.9652 10.5793 13.0578 10.5779 14.1504C10.5779 14.1992 10.595 14.228 10.636 14.2524C11.1762 14.5742 11.7157 14.8973 12.2553 15.2203C12.3414 15.2717 12.4274 15.3235 12.5125 15.3766C12.7851 15.547 12.8686 15.8981 12.7031 16.1752C12.5433 16.4429 12.1864 16.5312 11.9121 16.3683C11.4922 16.119 11.0737 15.8674 10.6543 15.6172C10.6341 15.6051 10.6132 15.5782 10.5898 15.5915C10.5664 15.6047 10.5791 15.6367 10.5791 15.66C10.5785 16.2878 10.5798 16.9157 10.5779 17.5435C10.577 17.8711 10.2992 18.1346 9.9751 18.1201C9.66546 18.1063 9.42243 17.8516 9.42163 17.5342C9.42002 16.9333 9.42136 16.3321 9.42056 15.7312C9.42056 15.6966 9.43848 15.6478 9.40906 15.6306C9.38017 15.6137 9.34593 15.6523 9.31637 15.67C8.91805 15.9077 8.52014 16.1461 8.12263 16.385C7.90234 16.5174 7.68138 16.5212 7.46818 16.3769C7.12591 16.1454 7.13781 15.6322 7.49185 15.4108C7.79239 15.2228 8.09922 15.0449 8.40337 14.8626C8.72665 14.6689 9.0494 14.4744 9.37388 14.2825C9.42283 14.2536 9.42136 14.2135 9.42136 14.1682C9.42109 13.1114 9.42109 12.0545 9.42109 10.9977C9.42109 10.9552 9.4215 10.9129 9.42096 10.8704C9.42016 10.7997 9.41574 10.7966 9.35569 10.8311C9.20482 10.9175 9.05421 11.0047 8.90374 11.0918C8.4213 11.3711 7.93885 11.6504 7.45654 11.9297C7.14396 12.1107 6.83165 12.292 6.51827 12.4718C6.48216 12.4925 6.47105 12.5181 6.46932 12.5579C6.45688 12.837 6.46022 13.1162 6.45541 13.3953C6.44765 13.8486 6.44042 14.302 6.42959 14.7552C6.42237 15.0573 6.176 15.3083 5.88214 15.3199C5.56649 15.3322 5.29617 15.1121 5.27825 14.7993C5.263 14.5326 5.28026 14.2639 5.2836 13.9961C5.28681 13.7392 5.29163 13.4823 5.2931 13.2255C5.2935 13.1668 5.25712 13.2052 5.24134 13.2142C5.08404 13.303 4.92769 13.3933 4.77133 13.4838C4.38933 13.705 4.0052 13.9229 3.62614 14.1493C3.28507 14.353 2.91244 14.1953 2.78096 13.9162C2.64882 13.6357 2.75675 13.3066 3.02573 13.1519C3.55338 12.8484 4.07943 12.5421 4.60574 12.2363C4.68038 12.1928 4.67917 12.18 4.60267 12.1369C4.18295 11.9007 3.7619 11.6668 3.34406 11.4272C2.99349 11.2264 2.94508 10.7606 3.24187 10.4871C3.4223 10.3207 3.70064 10.2955 3.92749 10.4233C4.55305 10.7757 5.17927 11.1268 5.80403 11.4805C5.85071 11.5069 5.88375 11.4996 5.92601 11.4751C6.84783 10.9401 7.77019 10.406 8.69255 9.87189C8.83847 9.78744 8.83954 9.78596 8.69335 9.70124C8.00439 9.30242 7.3149 8.90467 6.62567 8.50638C6.40752 8.38037 6.1891 8.25475 5.97216 8.12646C5.92976 8.10139 5.89806 8.1038 5.85619 8.12753C5.21432 8.49177 4.57204 8.85547 3.92869 9.21702C3.6537 9.37159 3.29939 9.2677 3.14584 8.99234C2.98975 8.71229 3.08726 8.36213 3.36773 8.2026C3.80377 7.9546 4.24073 7.70793 4.67703 7.46033C4.69576 7.44974 4.72599 7.44464 4.72639 7.42051C4.72692 7.39222 4.69442 7.38686 4.67423 7.3752C4.12036 7.05467 3.56488 6.73668 3.01262 6.41347C2.75127 6.26037 2.65631 5.9515 2.77468 5.67441C2.90709 5.36433 3.30072 5.23765 3.59284 5.4075C4.12678 5.71798 4.66219 6.02591 5.1972 6.33464C5.26126 6.37164 5.26314 6.37097 5.2618 6.29496C5.25324 5.81262 5.24147 5.33028 5.23625 4.84794C5.23398 4.6317 5.33523 4.46507 5.51901 4.35487C5.90033 4.12617 6.38278 4.39764 6.39214 4.84432C6.39829 5.13241 6.40164 5.4205 6.40712 5.70859C6.41528 6.13731 6.42558 6.56603 6.43146 6.99474C6.43227 7.05628 6.47132 7.07411 6.51105 7.09716C6.91418 7.33096 7.31744 7.56449 7.72084 7.79788C8.25932 8.10943 8.79794 8.42085 9.33643 8.73227C9.34994 8.74004 9.36358 8.74782 9.37709 8.75546C9.40986 8.77396 9.4219 8.76029 9.42123 8.72677C9.42096 8.71337 9.42136 8.69996 9.42136 8.68655C9.42136 7.61181 9.42083 6.5372 9.4227 5.46246C9.42283 5.39825 9.4017 5.36353 9.34633 5.33082C8.94106 5.09179 8.53833 4.84861 8.13453 4.60704C7.93551 4.48799 7.73702 4.36801 7.53679 4.25098C7.20362 4.05619 7.11801 3.65442 7.349 3.3615C7.52382 3.13977 7.85245 3.08441 8.10497 3.23536C8.51653 3.48135 8.92755 3.72815 9.33884 3.97442C9.36157 3.98809 9.38471 4.00083 9.42123 4.02161Z" fill="#959595"/>
</svg>
