<svg width="144" height="67" viewBox="0 0 144 67" fill="none" xmlns="http://www.w3.org/2000/svg">
<rect width="143.585" height="66.5394" transform="translate(0.278809 0.000579834)" fill="white"/>
<path d="M118.746 58.1219C113.052 58.1219 107.611 56.2517 103.215 52.7631C98.8195 56.2158 93.3785 58.1219 87.6853 58.1219C81.9921 58.1219 76.5512 56.2517 72.1552 52.7631C67.7592 56.2158 62.3182 58.1219 56.625 58.1219C50.9318 58.1219 45.4909 56.2517 41.0949 52.7631C36.6989 56.2158 31.2579 58.1219 25.5647 58.1219C18.9347 58.1219 12.701 55.6044 7.98072 51.0009C3.18836 46.3974 0.521929 40.2474 0.41383 33.7019C0.305732 27.1203 2.75596 20.8984 7.33213 16.1151C11.8723 11.3678 18.0339 8.63449 24.6639 8.4187H24.772H26.3575C31.7624 8.59852 36.879 10.4687 41.0588 13.7415C45.2026 10.4687 50.3193 8.59852 55.7242 8.4187L55.8323 11.2239V8.4187H57.4177C62.8227 8.59852 67.9393 10.4687 72.1191 13.7415C76.2989 10.4687 81.3796 8.59852 86.8205 8.4187H86.9286H88.5141C93.919 8.59852 99.0356 10.4687 103.215 13.7415C107.359 10.4687 112.476 8.59852 117.917 8.4187L118.025 11.2239V8.4187H119.61C126.204 8.63449 132.366 11.3678 136.942 16.1151C141.518 20.8625 143.969 27.1203 143.86 33.6659C143.752 40.2474 141.086 46.3974 136.366 51.0009C131.573 55.6044 125.34 58.1219 118.746 58.1219ZM107.323 48.6991C110.53 51.0368 114.494 52.4395 118.746 52.4395C129.231 52.4395 137.915 43.9878 138.059 33.6299C138.239 23.2721 129.88 14.5687 119.43 14.173H118.061C114.061 14.3169 110.386 15.6836 107.359 17.8774C110.963 22.373 112.836 27.9116 112.764 33.7019C112.62 39.2045 110.746 44.4193 107.323 48.6991ZM76.2629 48.6991C79.4698 51.0368 83.4334 52.4395 87.6853 52.4395C91.9372 52.4395 95.8648 51.0368 99.0717 48.6991C95.6846 44.4553 93.7749 39.2045 93.6668 33.7019C93.5587 27.9116 95.4684 22.373 99.0717 17.8774C96.0449 15.6836 92.3696 14.3169 88.3699 14.173H87.0007C83.001 14.3169 79.3257 15.6836 76.2989 17.8774C79.9022 22.373 81.7759 27.9116 81.7039 33.7019C81.5597 39.2045 79.65 44.4193 76.2629 48.6991ZM45.1666 48.6991C48.3735 51.0368 52.3371 52.4395 56.589 52.4395C60.8409 52.4395 64.7684 51.0368 67.9754 48.6991C64.5883 44.4553 62.6785 39.2045 62.5704 33.7019C62.4623 27.9116 64.3721 22.373 67.9754 17.8774C64.9486 15.6836 61.2733 14.3169 57.2736 14.173H55.9044C51.9047 14.3169 48.2294 15.6836 45.2026 17.8774C48.8059 22.373 50.6796 27.9116 50.6075 33.7019C50.4634 39.2045 48.5537 44.4193 45.1666 48.6991ZM24.808 14.1371C14.3585 14.4967 5.99892 23.2361 6.17908 33.594C6.35924 43.9518 15.0071 52.4035 25.4927 52.4035C29.7445 52.4035 33.6721 51.0009 36.879 48.6632C33.492 44.4193 31.5822 39.1685 31.4741 33.6659C31.366 27.8756 33.2758 22.337 36.879 17.8414C33.8523 15.6476 30.1769 14.2809 26.1773 14.1371H24.808ZM72.1191 21.9414C69.6689 25.2142 68.2636 29.2422 68.3357 33.594C68.4078 37.6939 69.813 41.5062 72.1191 44.5992C74.4252 41.5062 75.8305 37.6939 75.9026 33.594C75.9746 29.2422 74.5333 25.2142 72.1191 21.9414ZM41.0228 21.9414C38.5726 25.2142 37.1673 29.2422 37.2394 33.594C37.3114 37.6939 38.7167 41.5062 41.0228 44.5992C43.3289 41.5062 44.7342 37.6939 44.8063 33.594C44.8783 29.2422 43.473 25.2142 41.0228 21.9414ZM103.179 21.9414C100.729 25.2142 99.3239 29.2422 99.396 33.594C99.468 37.6939 100.873 41.5062 103.179 44.5992C105.486 41.5062 106.891 37.6939 106.963 33.594C107.071 29.2422 105.63 25.2142 103.179 21.9414Z" fill="#5F5F5F"/>
</svg>
