<svg width="10" height="11" viewBox="0 0 10 11" fill="none" xmlns="http://www.w3.org/2000/svg">
<path d="M3.96339 1.66852C2.92511 1.66852 2.08101 2.51262 2.08101 3.5509C2.08101 4.56937 2.87755 5.39365 3.91584 5.42932C3.94754 5.42536 3.97924 5.42536 4.00302 5.42932C4.01095 5.42932 4.01491 5.42932 4.02283 5.42932C4.0268 5.42932 4.0268 5.42932 4.03076 5.42932C5.04526 5.39365 5.84181 4.56937 5.84577 3.5509C5.84577 2.51262 5.00167 1.66852 3.96339 1.66852Z" fill="#90A3BF"/>
<path d="M5.97655 6.48343C4.8709 5.74633 3.06778 5.74633 1.9542 6.48343C1.45091 6.82028 1.17351 7.27601 1.17351 7.76345C1.17351 8.25089 1.45091 8.70266 1.95024 9.03554C2.50504 9.40806 3.23422 9.59431 3.9634 9.59431C4.69257 9.59431 5.42175 9.40806 5.97655 9.03554C6.47588 8.69869 6.75328 8.24692 6.75328 7.75552C6.74932 7.26808 6.47588 6.81631 5.97655 6.48343Z" fill="#90A3BF"/>
<path d="M8.31862 3.78466C8.38203 4.55347 7.83515 5.22716 7.07823 5.31831C7.07427 5.31831 7.07427 5.31831 7.07031 5.31831H7.05842C7.03464 5.31831 7.01086 5.31831 6.99105 5.32624C6.60665 5.34605 6.25395 5.2232 5.98843 4.99731C6.39661 4.63273 6.63043 4.08585 6.58287 3.49141C6.55513 3.17041 6.44417 2.87716 6.27773 2.6275C6.42832 2.5522 6.60269 2.50464 6.78102 2.48879C7.55775 2.42142 8.25125 3.00001 8.31862 3.78466Z" fill="#90A3BF"/>
<path d="M9.11121 7.45039C9.07951 7.8348 8.83381 8.16768 8.42167 8.39357C8.02538 8.61153 7.52605 8.71456 7.03069 8.70267C7.31602 8.44508 7.48246 8.12409 7.51416 7.78328C7.55379 7.29188 7.31998 6.82029 6.85236 6.44381C6.58684 6.23378 6.27773 6.06734 5.94089 5.94449C6.81669 5.69086 7.91838 5.86127 8.59604 6.40815C8.96062 6.7014 9.14688 7.06995 9.11121 7.45039Z" fill="#90A3BF"/>
</svg>
