<svg width="64" height="65" viewBox="0 0 64 65" fill="none" xmlns="http://www.w3.org/2000/svg">
<rect y="0.5" width="64" height="64" rx="16" fill="#ECF5FF"/>
<path d="M38.47 37.33L38.86 40.49C38.96 41.32 38.07 41.9 37.36 41.47L33.9 39.41C33.66 39.27 33.6 38.97 33.73 38.73C34.23 37.81 34.5 36.77 34.5 35.73C34.5 32.07 31.36 29.09 27.5 29.09C26.71 29.09 25.94 29.21 25.22 29.45C24.85 29.57 24.49 29.23 24.58 28.85C25.49 25.21 28.99 22.5 33.17 22.5C38.05 22.5 42 26.19 42 30.74C42 33.44 40.61 35.83 38.47 37.33Z" fill="#1572D3"/>
<path d="M33 35.73C33 36.92 32.56 38.02 31.82 38.89C30.83 40.09 29.26 40.86 27.5 40.86L24.89 42.41C24.45 42.68 23.89 42.31 23.95 41.8L24.2 39.83C22.86 38.9 22 37.41 22 35.73C22 33.97 22.94 32.42 24.38 31.5C25.27 30.92 26.34 30.59 27.5 30.59C30.54 30.59 33 32.89 33 35.73Z" fill="#1572D3"/>
</svg>
