<svg width="11" height="11" viewBox="0 0 11 11" fill="none" xmlns="http://www.w3.org/2000/svg">
<path d="M9.71014 4.57333L8.91756 4.17704C8.77094 4.10571 8.58864 4.16119 8.51731 4.30782C8.44201 4.45841 8.50146 4.63674 8.64809 4.70807L9.27819 5.02114V6.91937L7.7921 6.92333L7.7921 2.85739C7.7921 2.06481 7.26107 1.66852 6.60322 1.66852L3.4329 1.66852C2.77506 1.66852 2.24403 2.06481 2.24403 2.85739L2.24403 9.29712H1.64959C1.48711 9.29712 1.35237 9.43186 1.35237 9.59433C1.35237 9.75681 1.48711 9.89155 1.64959 9.89155H8.38653C8.54901 9.89155 8.68375 9.75681 8.68375 9.59433C8.68375 9.43186 8.54901 9.29712 8.38653 9.29712H7.7921L7.7921 7.51777L9.57541 7.51381C9.74185 7.51381 9.87262 7.37907 9.87262 7.21659V4.83884C9.87262 4.72788 9.80922 4.62485 9.71014 4.57333ZM3.23475 3.60638C3.23475 3.05554 3.5716 2.85739 3.98374 2.85739H6.05634C6.46452 2.85739 6.80137 3.05554 6.80137 3.60638V4.09382C6.80137 4.6407 6.46452 4.83884 6.05238 4.83884H3.98374C3.5716 4.83884 3.23475 4.6407 3.23475 4.08985V3.60638ZM3.4329 5.7305H4.62177C4.78425 5.7305 4.91899 5.86524 4.91899 6.02772C4.91899 6.1902 4.78425 6.32494 4.62177 6.32494H3.4329C3.27042 6.32494 3.13568 6.1902 3.13568 6.02772C3.13568 5.86524 3.27042 5.7305 3.4329 5.7305Z" fill="#90A3BF"/>
</svg>
