<svg width="273" height="49" viewBox="0 0 273 49" fill="none" xmlns="http://www.w3.org/2000/svg">
<path d="M32.4048 0.188079C32.4603 0.197467 32.5158 0.214109 32.5713 0.214962C33.3888 0.223496 34.206 0.234591 35.0236 0.252086C36.1394 0.275982 37.2544 0.316519 38.369 0.35663C39.3978 0.393754 40.4261 0.453493 41.4532 0.527314C42.8904 0.630578 44.3263 0.743656 45.76 0.893004C47.4925 1.0735 49.213 1.31374 50.9002 1.75496C52.6006 2.20002 54.202 2.85928 55.5884 3.97001C56.9513 5.06196 57.8884 6.45474 58.4913 8.08264C58.9535 9.33034 59.1971 10.6228 59.3064 11.9469C59.4169 13.2855 59.477 14.6254 59.5206 15.9674C59.5692 17.4668 59.6247 18.9663 59.5914 20.4658C59.5607 21.8645 59.4971 23.2624 59.3955 24.6586C59.3273 25.6004 59.2526 26.5417 59.1655 27.4813C59.0704 28.5058 58.9462 29.5274 58.8425 30.5515C58.7055 31.9084 58.5037 33.256 58.2729 34.5988C57.9067 36.7294 57.4472 38.8309 56.6373 40.8523C55.4694 43.7658 53.3734 45.6489 50.4466 46.6734C48.9787 47.1872 47.4643 47.5 45.9324 47.7355C44.5285 47.9514 43.1148 48.0765 41.6973 48.1699C40.698 48.2356 39.699 48.2945 38.6984 48.3389C37.321 48.4003 35.9436 48.4404 34.5653 48.4729C33.833 48.4899 33.1008 48.4895 32.369 48.507C31.0752 48.5377 29.7814 48.5505 28.4872 48.5301C27.0373 48.5074 25.5873 48.4874 24.1378 48.4498C23.0155 48.4212 21.8937 48.3781 20.7727 48.3222C19.6454 48.2659 18.518 48.2002 17.3923 48.1127C15.1397 47.9378 12.8957 47.6967 10.7075 47.0959C9.21316 46.6854 7.77131 46.1533 6.48733 45.2563C4.8061 44.0825 3.72652 42.4695 2.98831 40.5826C2.32137 38.8783 1.91428 37.1113 1.58358 35.3212C1.33182 33.96 1.12615 32.5912 0.958453 31.2171C0.851776 30.3437 0.774541 29.4668 0.685786 28.5912C0.603431 27.7791 0.518942 26.9675 0.444695 26.1547C0.391356 25.5679 0.348258 24.9799 0.309854 24.3923C0.164346 22.1649 0.105887 19.9341 0.112288 17.7024C0.115701 16.5161 0.109727 15.3277 0.180561 14.1423C0.279985 12.4696 0.372154 10.7957 0.814652 9.16606C1.27166 7.48397 2.02779 5.96488 3.25373 4.70608C4.26716 3.66491 5.48201 2.92884 6.82316 2.3882C8.30896 1.7891 9.86304 1.45711 11.4367 1.20365C12.7617 0.990294 14.0973 0.858014 15.4333 0.741522C16.4941 0.648926 17.5558 0.568278 18.62 0.510672C20.1378 0.428744 21.6547 0.337001 23.1747 0.294757C24.4394 0.259767 25.7038 0.215815 26.969 0.215389C27.0603 0.215389 27.1542 0.23075 27.2417 0.187653C28.9626 0.188079 30.6839 0.188079 32.4048 0.188079ZM29.8186 46.4289C29.8186 46.4285 29.8186 46.4281 29.8186 46.4272C30.9779 46.4272 32.1377 46.4524 33.2958 46.4213C34.8725 46.379 36.4505 46.356 38.0255 46.2638C38.8904 46.213 39.7571 46.1891 40.6207 46.123C41.9721 46.0193 43.3235 45.9105 44.6659 45.7116C45.9388 45.5235 47.2027 45.3011 48.4278 44.8911C50.764 44.1093 52.505 42.6555 53.55 40.4012C54.1026 39.2094 54.4943 37.9647 54.793 36.6889C55.323 34.4243 55.6187 32.1231 55.8675 29.8137C56.0309 28.2963 56.1662 26.7764 56.2776 25.2547C56.3646 24.0651 56.4308 22.872 56.4478 21.6793C56.4713 20.0519 56.4807 18.4235 56.4316 16.7952C56.3859 15.2753 56.3185 13.7579 56.1611 12.2452C56.0386 11.0688 55.8299 9.91152 55.4152 8.79866C54.799 7.14559 53.7758 5.8215 52.2665 4.88616C50.8455 4.00585 49.2735 3.55781 47.6465 3.27447C45.897 2.9698 44.1334 2.77992 42.3651 2.62161C41.0069 2.50042 39.6461 2.42532 38.2862 2.33998C37.3577 2.28195 36.4274 2.24141 35.4976 2.21239C34.2401 2.17313 32.9822 2.14156 31.7247 2.12705C30.9143 2.11766 30.104 2.1215 29.2933 2.14198C27.9572 2.17569 26.6199 2.15607 25.2839 2.203C24.5948 2.22733 23.9052 2.23074 23.2161 2.25378C22.57 2.27554 21.924 2.30371 21.2788 2.34254C20.2159 2.40569 19.1529 2.47439 18.0909 2.5512C17.4043 2.6007 16.7181 2.65958 16.0333 2.73212C15.0382 2.83752 14.0444 2.95231 13.0548 3.10037C11.7683 3.29282 10.4916 3.52154 9.25754 3.95251C6.43357 4.93907 4.63755 6.86054 3.90915 9.77327C3.53322 11.277 3.41929 12.8127 3.32115 14.3502C3.25543 15.3781 3.20721 16.4082 3.19612 17.4378C3.17564 19.3358 3.17137 21.2334 3.2597 23.131C3.31347 24.2874 3.3907 25.4416 3.47946 26.5959C3.57419 27.8274 3.68684 29.0567 3.8204 30.2848C3.99492 31.8871 4.20785 33.4838 4.51167 35.0669C4.84749 36.8147 5.27591 38.5352 6.00515 40.1687C6.75403 41.8461 7.85537 43.2098 9.47814 44.117C10.632 44.7622 11.8775 45.1462 13.1658 45.4053C15.1184 45.7978 17.0975 45.9809 19.08 46.1268C20.0857 46.2006 21.0928 46.2574 22.1002 46.2962C23.5562 46.3526 25.0125 46.3982 26.4689 46.4247C27.5852 46.4452 28.7023 46.4289 29.8186 46.4289Z" fill="#5F5F5F"/>
<path d="M74.4785 13.7043C74.6453 13.6962 74.8121 13.6813 74.979 13.6813C80.6427 13.68 86.306 13.68 91.9697 13.6804C92.5692 13.6804 92.5701 13.6813 92.5705 14.2701C92.5714 14.978 92.5624 15.6859 92.5744 16.3938C92.5791 16.6785 92.4886 16.8039 92.1856 16.8329C91.3548 16.9127 90.5296 17.0467 89.6983 17.1222C88.6196 17.2204 88.07 17.7568 88.0316 18.9076C87.9941 20.026 88.0265 21.147 88.018 22.2667C88.0158 22.5436 88.1677 22.5794 88.3875 22.5782C89.0954 22.5739 89.8033 22.5769 90.5112 22.5769C94.1024 22.5769 97.6936 22.5773 101.285 22.5764C101.799 22.5764 101.801 22.5743 101.801 22.0661C101.802 21.0237 101.808 19.9808 101.797 18.9383C101.786 17.7892 101.24 17.2311 100.09 17.1197C99.2212 17.0356 98.3559 16.911 97.4875 16.8154C97.272 16.7915 97.1961 16.6746 97.1956 16.4847C97.1931 15.648 97.1944 14.8116 97.1952 13.9748C97.1956 13.7683 97.2985 13.6685 97.5084 13.68C97.598 13.6851 97.6885 13.6791 97.7785 13.6791C103.416 13.6791 109.054 13.6791 114.692 13.6791C115.282 13.6791 115.282 13.68 115.283 14.2761C115.283 14.9712 115.274 15.6663 115.286 16.3614C115.291 16.6494 115.228 16.8005 114.893 16.8342C113.935 16.9302 112.979 17.048 112.028 17.1965C111.339 17.304 110.934 17.7367 110.818 18.4254C110.765 18.7412 110.726 19.0595 110.727 19.3842C110.732 23.0915 110.732 26.7983 110.727 30.5056C110.726 30.8303 110.764 31.1491 110.82 31.464C110.961 32.2611 111.505 32.675 112.414 32.7616C113.27 32.8431 114.122 32.9694 114.977 33.0624C115.21 33.0876 115.284 33.199 115.283 33.414C115.279 34.238 115.278 35.0616 115.283 35.8855C115.284 36.1164 115.18 36.2154 114.955 36.2043C114.865 36.2 114.775 36.2051 114.685 36.2051C109.047 36.2051 103.409 36.2051 97.7713 36.2051C97.1922 36.2051 97.1909 36.2043 97.1897 35.6325C97.1884 34.9374 97.1948 34.2423 97.1875 33.5472C97.1841 33.2502 97.2503 33.0838 97.6057 33.0505C98.5257 32.9643 99.4453 32.8529 100.358 32.7053C101.211 32.567 101.687 32.0336 101.71 31.1772C101.741 29.9939 101.719 28.809 101.726 27.6249C101.727 27.3906 101.625 27.301 101.4 27.3074C101.143 27.3146 100.885 27.3078 100.628 27.3078C96.6115 27.3078 92.5957 27.3078 88.5795 27.3078C88.0197 27.3078 88.0192 27.3087 88.0188 27.8493C88.0184 28.8145 88.0227 29.7802 88.0163 30.7454C88.0145 31.0317 88.0585 31.3112 88.1238 31.5851C88.2945 32.2995 88.8112 32.672 89.6587 32.759C90.5146 32.8465 91.3664 32.9707 92.2223 33.0577C92.4907 33.085 92.5727 33.2041 92.5705 33.4529C92.5637 34.238 92.5594 35.0232 92.5722 35.8083C92.5774 36.1121 92.4566 36.2137 92.1605 36.209C91.3497 36.1962 90.5385 36.2051 89.7278 36.2051C84.8364 36.2051 79.945 36.2056 75.0541 36.2043C74.8616 36.2043 74.6688 36.1894 74.4763 36.1812C74.4763 35.1512 74.4763 34.1215 74.4763 33.0914C75.5461 32.9617 76.6171 32.8427 77.6848 32.698C78.4127 32.599 78.8091 32.145 78.9482 31.4345C78.9982 31.1793 79.0114 30.9259 79.0114 30.6686C79.0114 27.9048 79.0118 25.141 79.0114 22.3776C79.0114 21.2208 79.0229 20.0636 79.005 18.9072C78.9883 17.8327 78.4789 17.2601 77.459 17.1359C76.4656 17.0151 75.4706 16.9072 74.4763 16.7937C74.4785 15.764 74.4785 14.7339 74.4785 13.7043Z" fill="#5F5F5F"/>
<path d="M131.869 36.8763C131.18 36.8068 130.49 36.7483 129.803 36.6655C126.817 36.3054 123.923 35.6303 121.321 34.0421C118.374 32.2435 116.574 29.6555 116.197 26.1966C115.824 22.774 116.733 19.7414 119.26 17.3044C120.8 15.819 122.666 14.8756 124.684 14.221C126.661 13.5792 128.695 13.2409 130.764 13.0476C132.602 12.876 134.441 12.8611 136.277 12.9255C139.609 13.0424 142.889 13.4948 145.976 14.8547C148.471 15.9535 150.532 17.5609 151.775 20.0541C152.679 21.8681 153.009 23.796 152.843 25.8194C152.466 30.3899 149.861 33.26 145.825 35.0244C143.687 35.9593 141.424 36.4308 139.111 36.6732C138.448 36.7428 137.784 36.8089 137.121 36.8768C135.37 36.8763 133.619 36.8763 131.869 36.8763ZM142.428 24.8862C142.456 24.2103 142.384 23.4691 142.27 22.7318C141.868 20.1327 140.507 18.3422 137.89 17.6863C135.712 17.1406 133.512 17.1393 131.323 17.6432C128.817 18.2201 127.324 19.8067 126.817 22.3114C126.454 24.1079 126.463 25.912 126.845 27.708C127.352 30.0882 128.771 31.6201 131.141 32.2026C133.4 32.7577 135.679 32.759 137.934 32.1851C140.197 31.609 141.593 30.1463 142.124 27.8638C142.347 26.9071 142.445 25.9389 142.428 24.8862Z" fill="#5F5F5F"/>
<path d="M272.216 36.104C272.062 36.1121 271.908 36.1279 271.755 36.1279C265.666 36.1292 259.578 36.1292 253.489 36.1287C252.883 36.1287 252.882 36.1279 252.882 35.5113C252.882 34.8034 252.89 34.0955 252.879 33.3876C252.875 33.1119 252.976 33.0091 253.255 32.9813C254.086 32.8994 254.914 32.7859 255.742 32.6848C255.962 32.6579 256.171 32.5956 256.367 32.497C256.93 32.2145 257.106 31.7571 256.837 31.1853C256.546 30.5653 256.111 30.0332 255.738 29.4623C255.608 29.2626 255.393 29.3223 255.207 29.3219C252.067 29.3189 248.926 29.3197 245.785 29.3197C244.614 29.3197 243.442 29.3266 242.271 29.315C241.997 29.3125 241.815 29.3914 241.674 29.6364C241.372 30.1599 241.038 30.6652 240.73 31.1857C240.364 31.804 240.541 32.3336 241.2 32.6378C241.743 32.8887 242.338 32.8077 242.905 32.9062C243.17 32.9523 243.441 32.9587 243.71 32.9843C244.277 33.0385 244.277 33.0389 244.278 33.621C244.278 34.2773 244.279 34.934 244.277 35.5902C244.277 36.1262 244.275 36.1283 243.746 36.1283C240.297 36.1292 236.847 36.1287 233.397 36.1287C232.367 36.1287 231.337 36.1181 230.308 36.1347C229.972 36.1403 229.852 36.0306 229.861 35.6914C229.88 34.9323 229.875 34.1727 229.863 33.4132C229.858 33.126 229.952 33.0078 230.254 32.9792C231.111 32.8981 231.964 32.7825 232.818 32.6767C233.555 32.5853 234.054 32.1574 234.432 31.5455C235.768 29.3765 237.11 27.2101 238.45 25.0432C239.648 23.106 240.848 21.1696 242.044 19.2315C242.206 18.9699 242.377 18.7134 242.387 18.3844C242.408 17.7512 241.996 17.272 241.364 17.2059C240.15 17.0791 238.938 16.9392 237.723 16.8261C237.437 16.7996 237.349 16.6874 237.353 16.4169C237.363 15.6578 237.371 14.8978 237.35 14.1387C237.34 13.7862 237.458 13.6714 237.813 13.6731C240.233 13.6855 242.653 13.6795 245.072 13.6795C248.11 13.6795 251.148 13.7017 254.186 13.6676C255.278 13.6552 256.05 14.0841 256.634 14.9793C259.214 18.9353 261.806 22.8841 264.393 26.8354C265.408 28.3861 266.426 29.9342 267.434 31.49C267.966 32.3118 268.716 32.7057 269.686 32.7658C270.531 32.8183 271.373 32.9289 272.217 33.0138C272.216 34.0443 272.216 35.0743 272.216 36.104ZM248.629 25.2647C249.928 25.2647 251.227 25.2656 252.527 25.2626C252.623 25.2622 252.754 25.3121 252.809 25.2037C252.863 25.0991 252.755 25.0159 252.702 24.934C251.361 22.8905 250.017 20.85 248.68 18.8039C248.526 18.5675 248.447 18.5176 248.276 18.7996C247.032 20.8436 245.774 22.8786 244.523 24.9169C244.326 25.2378 244.34 25.2634 244.731 25.2639C246.03 25.266 247.329 25.2647 248.629 25.2647Z" fill="#5F5F5F"/>
<path d="M183.363 30.1808C183.363 27.1371 183.37 24.2026 183.359 21.2686C183.355 20.3823 183.435 19.4926 183.301 18.6093C183.155 17.6394 182.694 17.2246 181.725 17.1256C180.869 17.0382 180.017 16.9136 179.16 16.827C178.892 16.7996 178.801 16.6874 178.817 16.434C178.87 15.5874 178.917 14.7403 178.961 13.8929C178.971 13.7051 179.047 13.6044 179.241 13.6074C179.344 13.6087 179.447 13.6044 179.55 13.6044C183.965 13.6044 188.381 13.604 192.796 13.6044C193.372 13.6044 193.373 13.6057 193.374 14.1771C193.374 14.8978 193.366 15.6189 193.377 16.3396C193.381 16.6076 193.295 16.7262 193.01 16.7553C192.23 16.8342 191.456 16.9652 190.677 17.0403C189.35 17.1679 188.859 17.677 188.823 19.0155C188.819 19.1572 188.821 19.2989 188.821 19.4401C188.821 24.8077 188.821 30.1753 188.821 35.5429C188.821 36.1275 188.821 36.1288 188.225 36.1288C184.724 36.1288 181.223 36.1159 177.722 36.1356C176.698 36.1416 175.948 35.7665 175.323 34.9387C171.58 29.9756 167.808 25.0351 164.044 20.0874C163.962 19.9786 163.872 19.8754 163.776 19.758C163.686 19.9005 163.725 20.0315 163.725 20.154C163.722 23.5263 163.721 26.899 163.726 30.2713C163.727 30.6434 163.754 31.0176 163.8 31.3872C163.902 32.2022 164.459 32.666 165.368 32.759C166.224 32.8465 167.076 32.9715 167.932 33.0577C168.204 33.085 168.277 33.2075 168.274 33.4546C168.267 34.2269 168.258 34.9997 168.278 35.7712C168.287 36.1155 168.159 36.212 167.828 36.2103C165.627 36.1996 163.426 36.2047 161.225 36.2047C158.908 36.2047 156.591 36.1983 154.274 36.2111C153.914 36.2132 153.767 36.1138 153.78 35.7336C153.803 34.9877 153.794 34.2406 153.783 33.4942C153.779 33.2135 153.861 33.082 154.168 33.053C154.999 32.9745 155.825 32.8439 156.655 32.7624C157.794 32.6506 158.326 32.0639 158.334 30.8247C158.345 29.1 158.337 27.3752 158.337 25.65C158.337 23.5391 158.337 21.4282 158.337 19.3168C158.337 19.1879 158.341 19.0591 158.333 18.9306C158.264 17.7333 157.749 17.2238 156.566 17.1167C155.735 17.0416 154.909 16.9136 154.079 16.8188C153.869 16.7949 153.787 16.6934 153.788 16.4933C153.79 15.6565 153.79 14.8201 153.788 13.9834C153.788 13.7755 153.883 13.6744 154.094 13.6808C154.196 13.6842 154.3 13.6795 154.403 13.6795C159.294 13.6795 164.185 13.6795 169.077 13.6795C169.283 13.6795 169.489 13.677 169.695 13.6847C170.483 13.7128 171.11 14.0021 171.606 14.661C175.407 19.709 179.228 24.7424 183.042 29.7802C183.126 29.8911 183.215 29.9969 183.363 30.1808Z" fill="#5F5F5F"/>
<path d="M207.522 36.1288C202.844 36.1288 198.982 36.1292 195.12 36.1283C194.568 36.1283 194.567 36.1266 194.566 35.574C194.565 34.8533 194.575 34.1322 194.562 33.4115C194.557 33.123 194.653 33.0104 194.954 32.9788C195.912 32.8785 196.869 32.7646 197.82 32.6127C198.516 32.5017 198.92 32.0686 199.03 31.3837C199.085 31.0424 199.115 30.6929 199.116 30.3468C199.122 26.6391 199.118 22.9319 199.122 19.2242C199.123 18.8999 199.089 18.5803 199.034 18.265C198.939 17.7218 198.613 17.3672 198.082 17.2076C197.374 16.9946 196.635 17.0002 195.911 16.8995C194.635 16.7224 194.903 16.987 194.874 15.7845C194.861 15.2055 194.88 14.626 194.869 14.0465C194.865 13.7871 194.953 13.6556 195.225 13.68C195.289 13.6859 195.354 13.68 195.418 13.68C202.833 13.6804 210.248 13.665 217.663 13.6906C220.318 13.7 222.919 14.1075 225.38 15.1632C227.965 16.2714 229.974 17.9923 231.019 20.675C231.695 22.4079 231.873 24.2082 231.705 26.0575C231.557 27.6735 231.124 29.1896 230.273 30.5751C229.224 32.2841 227.731 33.4994 225.947 34.3656C223.787 35.4136 221.482 35.9244 219.099 36.0451C214.97 36.2538 210.837 36.0605 207.522 36.1288ZM207.896 24.9408C207.896 27.0381 207.896 29.1354 207.896 31.2331C207.896 31.7759 207.897 31.778 208.419 31.778C210.71 31.7789 213 31.7823 215.29 31.775C215.829 31.7733 216.367 31.7665 216.906 31.6927C219.154 31.3863 220.476 30.2414 220.991 28.0332C221.44 26.1058 221.409 24.1557 221.083 22.212C220.9 21.1252 220.499 20.1314 219.668 19.3612C218.729 18.4903 217.563 18.1643 216.335 18.1408C213.686 18.0909 211.034 18.1207 208.384 18.0981C207.985 18.0947 207.885 18.2278 207.888 18.6097C207.905 20.7203 207.896 22.8308 207.896 24.9408Z" fill="#5F5F5F"/>
<path d="M15.6571 4.27485C16.2328 4.2757 16.1291 4.20146 16.2422 4.72247C17.4817 10.4344 18.7602 16.1374 20.2157 21.799C20.6014 23.2997 21.0277 24.7881 21.6631 26.2082C22.627 28.3648 24.2613 29.6415 26.601 30.0059C27.2683 30.11 27.9391 30.1565 28.6142 30.186C29.5815 30.2282 30.5485 30.2116 31.5128 30.1642C32.6363 30.1087 33.7471 29.9525 34.7891 29.4815C36.0133 28.9276 36.9273 28.0443 37.5721 26.8755C38.2254 25.691 38.6461 24.4143 39.002 23.1184C40.0176 19.4196 40.9397 15.6974 41.7765 11.9539C42.3278 9.48711 42.8659 7.01732 43.4022 4.54709C43.4488 4.33331 43.5337 4.25906 43.7564 4.26845C44.9841 4.31838 46.2113 4.36787 47.4312 4.52576C47.5708 4.54368 47.6139 4.60683 47.6058 4.73484C47.5575 5.47177 47.5115 6.2087 47.4628 6.94563C47.4283 7.46963 47.3886 7.99363 47.354 8.51763C47.2832 9.59422 47.2136 10.6712 47.1458 11.7482C47.0988 12.4924 47.0579 13.2366 47.0097 13.9808C46.9444 14.9938 46.874 16.0068 46.8074 17.0198C46.7604 17.7282 46.7174 18.4369 46.67 19.1453C46.6021 20.1651 46.5322 21.1849 46.4643 22.2052C46.4187 22.8922 46.3756 23.5796 46.3295 24.2666C46.2612 25.2865 46.1908 26.3063 46.1221 27.3261C46.076 28.0132 46.0342 28.7006 45.9851 29.3876C45.9203 30.2939 45.8481 31.1994 45.782 32.1057C45.7342 32.7641 45.6937 33.423 45.6446 34.0814C45.5802 34.9519 45.5098 35.8224 45.4432 36.6929C45.3963 37.3086 45.3527 37.9248 45.3045 38.5405C45.2384 39.3897 45.1697 40.2384 45.1014 41.0875C45.0412 41.8377 44.9815 42.5874 44.9209 43.3376C44.894 43.67 44.8582 44.002 44.8398 44.3348C44.8317 44.4807 44.7698 44.5277 44.6316 44.5405C43.9535 44.6036 43.2772 44.6945 42.5979 44.7389C41.4641 44.8132 40.3286 44.8622 39.194 44.9156C38.8672 44.9309 38.8684 44.9207 38.7869 44.6036C38.2109 42.3608 37.6754 40.107 36.9158 37.9158C36.6995 37.2907 36.4464 36.6813 36.1644 36.0822C35.5678 34.8158 34.5728 34.1074 33.2047 33.8697C31.7829 33.6231 30.3517 33.5561 28.9154 33.6231C27.9592 33.6675 27.0012 33.7375 26.0637 33.9555C24.9428 34.2162 24.1222 34.8665 23.5922 35.8842C23.0042 37.0125 22.6266 38.2205 22.2626 39.4323C21.7454 41.1541 21.3204 42.9006 20.8677 44.6399C20.8088 44.8669 20.7128 44.9322 20.4888 44.922C19.4032 44.8725 18.3181 44.8217 17.2334 44.759C16.4815 44.7154 15.7335 44.6446 14.9872 44.5456C14.8238 44.5238 14.7785 44.4564 14.7666 44.302C14.6911 43.3256 14.6023 42.3502 14.5246 41.3739C14.4589 40.5529 14.4047 39.7315 14.3407 38.9105C14.2622 37.8987 14.176 36.8874 14.0984 35.8753C14.0467 35.2028 14.0066 34.5294 13.9571 33.8569C13.8923 32.972 13.8219 32.0878 13.7574 31.2028C13.7079 30.5231 13.6652 29.8429 13.617 29.1631C13.5513 28.2355 13.4813 27.3082 13.4173 26.381C13.367 25.6513 13.3243 24.9212 13.2757 24.1915C13.2104 23.2144 13.1404 22.2372 13.0755 21.2596C13.0256 20.5086 12.9829 19.7572 12.9339 19.0062C12.869 18.0217 12.7999 17.0373 12.7346 16.0529C12.7 15.5357 12.6706 15.0181 12.6369 14.501C12.5699 13.4739 12.5003 12.4468 12.4346 11.4197C12.3855 10.6473 12.3433 9.87457 12.2938 9.10222C12.2289 8.08921 12.1598 7.0762 12.0932 6.06319C12.0638 5.61685 12.0382 5.17009 12.0062 4.72418C11.996 4.58379 12.0591 4.53898 12.1901 4.52661C12.706 4.47754 13.2198 4.40628 13.7361 4.37001C14.3804 4.3235 15.0269 4.30429 15.6571 4.27485Z" fill="#5F5F5F"/>
</svg>
