<svg width="225" height="67" viewBox="0 0 225 67" fill="none" xmlns="http://www.w3.org/2000/svg">
<rect width="224.133" height="66.5394" transform="translate(0.216553 0.000579834)" fill="white"/>
<path d="M213.997 35.7587L215.304 35.6532C215.84 35.611 216.376 35.5477 216.869 35.4844C218.155 35.2946 219.248 34.9571 220.149 34.493C220.491 34.3242 220.663 34.1976 221.049 33.9234C222.185 33.1218 222.763 32.046 222.849 30.5693C222.871 30.274 222.849 30.042 222.828 29.7888C222.763 28.8606 222.549 28.0801 222.163 27.4684C221.713 26.7301 221.07 26.1605 220.213 25.7386C219.355 25.3167 218.262 25.0003 216.998 24.8104C216.998 24.8104 215.133 24.5151 212.368 24.5151H191.234V42.0449H197.879V35.8852H206.902L217.062 42.066H224.35L213.997 35.7587ZM210.975 26.5613C211.018 26.5613 211.039 26.5613 211.082 26.5613C211.832 26.5824 212.475 26.6035 213.033 26.6668C213.74 26.7512 214.34 26.8988 214.812 27.152C215.304 27.4051 215.69 27.7848 215.883 28.2489C216.076 28.6497 216.162 29.156 216.183 29.7677C216.183 29.8099 216.205 30.6537 216.162 31.0756C216.14 31.4975 216.033 31.9616 215.883 32.278C215.733 32.6155 215.519 32.8898 215.219 33.1218C215.133 33.1851 215.047 33.2484 214.962 33.2906C214.533 33.5226 213.997 33.6703 213.311 33.7547C212.69 33.8179 211.897 33.8601 210.953 33.8601H197.836V26.5613H210.975Z" fill="#5F5F5F"/>
<path d="M22.0361 24.5362V32.7843C22.0361 35.2523 21.1145 37.0876 19.2926 38.2267C17.7279 39.2182 15.456 39.7245 12.5624 39.7245H0.216553V42.066H10.4619C13.3126 42.066 15.9275 41.9605 18.2209 41.7496C20.4715 41.5386 22.3791 41.1167 23.9223 40.4839C25.4227 39.8721 26.6015 38.9861 27.416 37.847C28.1447 36.8134 28.552 35.4633 28.6377 33.7968C28.6377 33.6491 28.6591 33.4593 28.6591 33.2483V24.5362H22.0361Z" fill="#5F5F5F"/>
<path d="M98.105 34.0289V39.7245H87.9669C82.6513 39.7245 79.5648 38.037 78.7289 34.7462C78.386 33.375 78.6003 32.0671 78.7289 31.5819C79.5434 28.2489 82.587 26.6246 87.9669 26.6246H103.828V24.5363H90.0459C87.1524 24.5363 84.5375 24.6417 82.2441 24.8316C80.015 25.0214 78.0859 25.4433 76.5427 26.0551C75.0209 26.6668 73.8635 27.5317 73.0704 28.6708C72.2988 29.7467 71.913 31.2022 71.8701 32.9953C71.8701 33.0375 71.8701 33.0797 71.8701 33.143C71.8701 33.2273 71.8701 33.3117 71.8701 33.4172C71.8916 35.2735 72.2988 36.7713 73.0918 37.8682C73.9063 39.0073 75.0852 39.8933 76.5855 40.5051C78.1288 41.1379 80.0578 41.5598 82.2869 41.7707C84.5803 41.9817 87.1738 42.0872 90.0459 42.0872H104.728V34.0289H98.105Z" fill="#5F5F5F"/>
<path d="M53.8222 24.5363H46.9848L31.6597 42.0661H35.6249L39.0757 38.1213H58.3447L61.7955 42.0661H69.1687L53.8222 24.5363ZM48.6995 27.1098L56.6943 36.2439H40.7261L48.6995 27.1098Z" fill="#5F5F5F"/>
<path d="M163.134 24.5363L147.809 42.0661H151.774L155.225 38.1002H174.473L177.924 42.0661H185.318L169.993 24.5363H163.134ZM172.865 36.2439H156.876L164.87 27.1098L172.865 36.2439Z" fill="#5F5F5F"/>
<path d="M138.186 24.5363V33.4172C138.186 34.1766 138.078 34.8727 137.928 35.5056C137.071 38.7331 134.006 40.3785 128.733 40.3996H128.069C122.775 40.3996 119.688 38.712 118.852 35.4423C118.702 34.8305 118.617 34.1555 118.617 33.4383V24.5363H111.972V33.6914C111.972 35.59 112.379 37.151 113.194 38.2901C113.708 38.9862 114.351 39.6191 115.123 40.1253C115.594 40.4207 116.109 40.6949 116.688 40.927C117.266 41.159 117.888 41.3699 118.574 41.5387C119.71 41.834 120.996 42.045 122.41 42.1926C124.189 42.3614 126.204 42.4669 128.39 42.4669C130.598 42.4669 132.591 42.3614 134.37 42.1926C135.764 42.0661 137.05 41.8551 138.186 41.5598C138.872 41.391 139.493 41.1801 140.072 40.948C140.651 40.716 141.165 40.4629 141.636 40.1464C142.43 39.6402 143.073 39.0284 143.566 38.3112C144.38 37.1721 144.787 35.6111 144.787 33.7125V24.5363H138.186Z" fill="#5F5F5F"/>
</svg>
