<svg width="80" height="67" viewBox="0 0 80 67" fill="none" xmlns="http://www.w3.org/2000/svg">
<rect width="78.7967" height="66.5394" transform="translate(0.349365 0.000579834)" fill="white"/>
<path d="M11.534 23.0483C15.6334 11.1631 26.9671 3.13253 39.7477 3.13253C52.5283 3.13253 63.862 11.1631 67.9614 23.0483V23.1286H76.9641V22.0846L73.2665 21.6831C70.9355 21.4422 70.4532 20.3982 69.8102 19.1133L69.6494 18.7921C64.2639 7.38872 52.5283 0.000610352 39.7477 0.000610352C26.9671 0.000610352 15.2315 7.38872 9.76559 18.7921L9.60483 19.1133C9.04217 20.3982 8.4795 21.4422 6.22883 21.6831L2.45093 22.0846V23.1286H11.4536L11.534 23.0483Z" fill="#5F5F5F"/>
<path d="M68.0418 42.8838V42.9641C63.862 54.8493 52.5283 62.8799 39.7477 62.8799C26.9671 62.8799 15.6334 54.8493 11.534 42.9641V42.8838H2.45093V43.9278L6.22883 44.3293C8.55988 44.5702 9.04217 45.6142 9.68521 46.8991L9.84598 47.2203C15.1511 58.6237 26.9671 66.0118 39.7477 66.0118C52.5283 66.0118 64.2639 58.6237 69.7298 47.2203L69.8905 46.8991C70.5336 45.6142 71.0159 44.6505 73.3469 44.3293L77.1248 43.9278V42.8838H68.0418Z" fill="#5F5F5F"/>
<path d="M18.6077 28.8303H16.5178V37.9851H18.6077V28.8303Z" fill="#5F5F5F"/>
<path d="M11.6142 37.9048V28.8303H9.60465V35.6562L2.93303 28.8303H0.36084V37.9048H2.37036V31.0788L9.12236 37.9048H11.6142Z" fill="#5F5F5F"/>
<path d="M57.3508 28.8303L51.7241 37.9851H54.1355L55.1001 36.379H61.611L62.5756 37.9851H64.987L59.3603 28.8303H57.3508ZM60.6464 34.6123H56.1451L58.3957 30.9182L60.6464 34.6123Z" fill="#5F5F5F"/>
<path d="M46.0174 36.0579C45.937 36.0579 45.6959 36.0579 45.6155 36.0579H37.1755V37.9049H45.6959C45.7762 37.9049 46.2585 37.9049 46.3389 37.9049C48.1073 37.7443 48.8307 36.3791 48.8307 35.0942C48.8307 33.8093 48.0269 32.5244 46.4193 32.3638C46.1781 32.3638 45.937 32.3638 45.7762 32.3638H40.2299C39.9888 32.3638 39.828 32.3638 39.5869 32.2835C39.185 32.2032 38.9438 31.882 39.0242 31.4805C39.0242 31.0789 39.2654 30.7577 39.6673 30.6774C39.828 30.5971 40.0692 30.5971 40.2299 30.5971H48.268V28.7501H40.1496C39.9084 28.7501 39.5869 28.7501 39.3458 28.8304C37.9793 28.991 36.9343 30.1153 36.9343 31.4805C36.9343 32.6047 37.6578 33.9699 39.2654 34.1305C39.5869 34.1305 39.828 34.2108 40.1496 34.1305H45.5351C45.6155 34.1305 45.8566 34.1305 45.937 34.1305C46.4193 34.2108 46.7408 34.6124 46.7408 35.0139C46.7408 35.576 46.4193 35.9776 46.0174 36.0579Z" fill="#5F5F5F"/>
<path d="M31.2271 36.0578C31.1467 36.0578 30.9056 36.0578 30.8252 36.0578H22.4656V37.9048H30.9056C30.9859 37.9048 31.4682 37.9048 31.5486 37.9048C33.317 37.7442 34.1208 36.379 34.1208 35.1744C34.1208 33.9698 33.317 32.6046 31.7094 32.444C31.4682 32.444 31.2271 32.444 31.0663 32.444H25.52C25.2789 32.444 25.1181 32.444 24.877 32.3637C24.4751 32.2834 24.2339 31.9622 24.3143 31.5607C24.3143 31.1591 24.5555 30.8379 24.9574 30.7576C25.1181 30.6773 25.3593 30.6773 25.52 30.6773H33.5581V28.8303H25.3593C25.1181 28.8303 24.7966 28.8303 24.5555 28.9106C23.189 29.0712 22.144 30.1955 22.144 31.5607C22.144 32.6849 22.8675 34.0501 24.4751 34.2107C24.7966 34.2107 25.0378 34.291 25.3593 34.2107H30.7448C30.8252 34.2107 31.0663 34.2107 31.1467 34.2107C31.629 34.291 31.9505 34.6926 31.9505 35.0941C32.0309 35.5759 31.629 35.9775 31.2271 36.0578Z" fill="#5F5F5F"/>
<path d="M79.1343 37.9048V28.8303H77.1248V35.6562L70.4532 28.8303H67.881V37.9048H69.8905V31.0788L76.6425 37.9048H79.1343Z" fill="#5F5F5F"/>
<path d="M73.9094 60.4707C74.8739 60.4707 75.6777 61.2738 75.6777 62.2375C75.6777 63.2011 74.8739 64.0042 73.9094 64.0042C72.9448 64.0042 72.141 63.2011 72.141 62.2375C72.141 61.7556 72.3018 61.3541 72.7037 60.9526C72.9448 60.6313 73.4271 60.3904 73.9094 60.4707ZM73.9094 63.6027C74.3113 63.6027 74.6328 63.442 74.8739 63.2011C75.1151 62.9602 75.2758 62.5587 75.2758 62.2375C75.2758 61.5147 74.6328 60.8723 73.9094 60.9526C73.1859 60.9526 72.5429 61.595 72.5429 62.3178C72.5429 62.9602 73.1056 63.6027 73.9094 63.6027ZM73.1859 63.1208V61.3541C73.4271 61.3541 73.5878 61.2738 73.829 61.2738C74.1505 61.2738 74.6328 61.3541 74.6328 61.7556C74.6328 61.9965 74.472 62.1572 74.2309 62.1572C74.3917 62.2375 74.472 62.3981 74.5524 62.5587C74.5524 62.7193 74.6328 62.8799 74.7132 62.9602H74.3113C74.2309 62.7996 74.2309 62.639 74.1505 62.5587C74.0701 62.3178 73.9094 62.3178 73.5878 62.3178V63.0405L73.1859 63.1208ZM73.5878 62.0768C73.9094 62.0768 74.2309 62.0768 74.2309 61.8359C74.2309 61.6753 74.1505 61.595 73.829 61.595C73.7486 61.595 73.6682 61.595 73.5878 61.595V62.0768Z" fill="#5F5F5F"/>
</svg>
