<svg width="10" height="11" viewBox="0 0 10 11" fill="none" xmlns="http://www.w3.org/2000/svg">
<g clip-path="url(#clip0_1_593)">
<path d="M5.12705 1.66852C2.93952 1.66852 1.16414 3.4439 1.16414 5.63143C1.16414 7.81895 2.93952 9.59433 5.12705 9.59433C7.31457 9.59433 9.08996 7.81895 9.08996 5.63143C9.08996 3.4439 7.31854 1.66852 5.12705 1.66852Z" fill="#90A3BF"/>
<rect x="1.95674" y="2.46112" width="6.34065" height="6.34065" rx="3.17033" fill="white"/>
<path d="M5.12701 3.25354C3.8145 3.25354 2.74927 4.31877 2.74927 5.63128C2.74927 6.9438 3.8145 8.00903 5.12701 8.00903C6.43953 8.00903 7.50476 6.9438 7.50476 5.63128C7.50476 4.31877 6.44191 3.25354 5.12701 3.25354Z" fill="#90A3BF"/>
<rect x="3.54184" y="4.0462" width="3.17033" height="3.17033" rx="1.58516" fill="white"/>
<rect x="4.73074" y="7.61285" width="0.792582" height="1.58516" fill="#90A3BF"/>
<rect x="7.10844" y="5.23505" width="1.58516" height="0.792582" fill="#90A3BF"/>
<rect x="1.56038" y="5.23505" width="1.58516" height="0.792582" fill="#90A3BF"/>
</g>
<defs>
<clipPath id="clip0_1_593">
<rect width="9.51098" height="9.51098" fill="white" transform="translate(0.371399 0.875916)"/>
</clipPath>
</defs>
</svg>
