<svg width="225" height="67" viewBox="0 0 225 67" fill="none" xmlns="http://www.w3.org/2000/svg">
<rect width="224.133" height="66.5394" transform="translate(0.145996 0.000579834)" fill="white"/>
<g clip-path="url(#clip0_2_933)">
<path d="M3.94719 27.128L11.6661 40.9353L20.589 40.9586L28.1663 27.128H31.9667V24.6133H20.5417V27.128H23.8465L18.3228 37.1866L12.7284 27.128H16.7413V24.6133H0.146729V27.128H3.94719Z" fill="#5F5F5F"/>
<path d="M102.216 27.128V24.6366H117.512V27.128H113.711V38.4207H117.252C120.533 38.4207 122.681 36.2786 122.681 33.3914H125.207V40.9586H102.239V38.3974H106.087V27.1047H102.216V27.128Z" fill="#5F5F5F"/>
<path d="M65.1318 24.2641C57.4601 24.2641 53.3763 28.0361 53.3763 32.786C53.3763 37.5825 57.2948 41.4243 65.179 41.4243C73.0632 41.4243 76.9345 37.5825 76.9345 32.786C76.9345 28.0593 72.8271 24.2641 65.1318 24.2641ZM65.061 38.8398C62.252 38.7932 61.0245 35.743 61.0717 32.6928C61.1189 29.5495 62.6532 26.802 65.2734 26.8486C67.8936 26.8951 69.2864 29.6892 69.2391 32.8325C69.1919 35.7896 67.9408 38.8864 65.061 38.8398Z" fill="#5F5F5F"/>
<path d="M151.268 27.128L158.987 40.9354L167.91 40.9586L175.487 27.128H179.287V24.6133H167.862V27.128H171.167L165.643 37.1866L160.049 27.128H164.062V24.6133H147.467V27.128H151.268Z" fill="#5F5F5F"/>
<path d="M212.453 24.2641C204.781 24.2641 200.697 28.0361 200.697 32.786C200.697 37.5825 204.616 41.4243 212.5 41.4243C220.384 41.4243 224.255 37.5825 224.255 32.786C224.255 28.0593 220.148 24.2641 212.453 24.2641ZM212.382 38.8398C209.573 38.7932 208.345 35.743 208.393 32.6928C208.44 29.5495 209.974 26.802 212.594 26.8486C215.215 26.8951 216.607 29.6892 216.56 32.8325C216.513 35.7896 215.262 38.8864 212.382 38.8398Z" fill="#5F5F5F"/>
</g>
<defs>
<clipPath id="clip0_2_933">
<rect width="224.133" height="17.1835" fill="white" transform="translate(0.14624 24.2408)"/>
</clipPath>
</defs>
</svg>
